<svg xmlns="http://www.w3.org/2000/svg" viewBox="0 0 200 200">
  <rect width="200" height="200" rx="50" ry="50" fill="#FFFC00"/>
  <path d="M100 170c-20 0-30-10-30-10l-10 5s5 15 40 15 40-15 40-15l-10-5s-10 10-30 10z" fill="#FFFFFF"/>
  <path d="M165 95c0-40-35-40-65-40s-65 0-65 40c0 15 5 25 5 25l10-5s-5-10-5-20c0-30 30-30 55-30s55 0 55 30c0 10-5 20-5 20l10 5s5-10 5-25z" fill="#FFFFFF"/>
  <path d="M120 125c0 10-10 20-20 20s-20-10-20-20 10-20 20-20 20 10 20 20z" fill="#FFFFFF"/>
  <path fill="none" stroke="#000000" stroke-width="4" d="M100 170c-20 0-30-10-30-10l-10 5s5 15 40 15 40-15 40-15l-10-5s-10 10-30 10z M165 95c0-40-35-40-65-40s-65 0-65 40c0 15 5 25 5 25l10-5s-5-10-5-20c0-30 30-30 55-30s55 0 55 30c0 10-5 20-5 20l10 5s5-10 5-25z M120 125c0 10-10 20-20 20s-20-10-20-20 10-20 20-20 20 10 20 20z"/>
</svg> 